<svg width="93" height="92" viewBox="0 0 93 92" fill="none" xmlns="http://www.w3.org/2000/svg">
<circle cx="46.6666" cy="46" r="46" fill="#E6F5FC"/>
<g clip-path="url(#clip0_399_1197)">
<mask id="mask0_399_1197" style="mask-type:luminance" maskUnits="userSpaceOnUse" x="20" y="20" width="51" height="50">
<path d="M20.6666 20H70.6666V70H20.6666V20Z" fill="white"/>
</mask>
<g mask="url(#mask0_399_1197)">
<path d="M40.8193 26.921C39.2311 27.2723 40.8193 29.7341 40.3324 31.3262C40.0008 32.4275 42.2719 32.5644 42.2719 32.5644C42.2719 32.5644 43.8601 32.2131 43.5916 34.7696C43.3193 37.3223 46.8443 38.2118 47.114 35.6552C47.3824 33.1012 45.2916 31.7236 46.4416 29.7341C49.1943 24.9723 40.8193 26.921 40.8193 26.921Z" fill="#D99E82"/>
<path d="M57.51 45C57.2653 45.0004 57.0253 44.9325 56.817 44.8039C56.6088 44.6754 56.4405 44.4913 56.3311 44.2724C53.9785 39.5684 46.639 37.0618 46.5653 37.0368C46.2386 36.923 45.9699 36.6851 45.8174 36.3746C45.6648 36.0641 45.6406 35.706 45.7501 35.3778C45.8597 35.0497 46.094 34.7779 46.4024 34.6212C46.7109 34.4645 47.0686 34.4356 47.3982 34.5408C47.7416 34.6553 55.8429 37.4105 58.6864 43.0961C58.7862 43.2966 58.8332 43.5194 58.8229 43.7432C58.8127 43.967 58.7455 44.1846 58.6277 44.3752C58.5099 44.5658 58.3455 44.7232 58.1499 44.8325C57.9543 44.9419 57.7341 44.9995 57.51 45Z" fill="#D99E82"/>
<path d="M37.7745 66.0537C37.3669 66.054 36.9647 65.9596 36.5998 65.7779C36.2349 65.5962 35.9172 65.3322 35.6717 65.0067C35.4262 64.6813 35.2597 64.3032 35.1853 63.9024C35.1109 63.5016 35.1306 63.089 35.243 62.6971L37.8745 53.4866C38.0382 52.9148 38.3906 52.4153 38.8745 52.0695L48.0851 45.4906C48.3661 45.2895 48.684 45.1459 49.0206 45.0679C49.3572 44.9898 49.7059 44.9789 50.0468 45.0357C50.3876 45.0925 50.7139 45.216 51.007 45.399C51.3 45.5821 51.5542 45.8211 51.7548 46.1024C51.9559 46.3834 52.0996 46.7012 52.1777 47.0378C52.2559 47.3743 52.2669 47.723 52.2102 48.0638C52.1535 48.4046 52.0302 48.7309 51.8473 49.0241C51.6644 49.3172 51.4255 49.5714 51.1443 49.7721L42.6824 55.8182L40.3035 64.1445C40.146 64.6939 39.8141 65.1772 39.358 65.5216C38.9018 65.866 38.3461 66.0527 37.7745 66.0537Z" fill="#2A6797"/>
<path d="M57.5061 62.105C57.1114 62.105 56.7101 62.0168 56.3311 61.8273L48.4364 57.88C47.9994 57.6613 47.6319 57.3253 47.3751 56.9095C47.1183 56.4937 46.9823 56.0147 46.9824 55.526V48.9471C46.9824 48.2491 47.2597 47.5798 47.7532 47.0863C48.2467 46.5928 48.9161 46.3155 49.614 46.3155C50.3119 46.3155 50.9813 46.5928 51.4748 47.0863C51.9683 47.5798 52.2456 48.2491 52.2456 48.9471V53.8997L58.6851 57.1195C59.2155 57.3846 59.6409 57.8211 59.8922 58.3583C60.1435 58.8955 60.206 59.5019 60.0695 60.079C59.933 60.6561 59.6056 61.1703 59.1403 61.538C58.675 61.9057 58.0992 62.1055 57.5061 62.105Z" fill="#4289C1"/>
<path d="M34.6732 66.0656L39.1416 67.5669C39.8785 63.6498 37.8627 64.3603 35.2508 63.484C32.639 62.6077 30.1035 63.1432 29.6837 64.3919C30.7087 64.734 31.6692 65.0577 33.4258 65.6485L34.6732 66.0656Z" fill="#292F33"/>
<path d="M59.9956 61.9995L60.8903 57.3706C56.91 57.1614 57.8824 59.0667 57.36 61.7693C56.8377 64.4759 57.7061 66.918 58.9969 67.168L59.7469 63.2903L59.9956 61.9995Z" fill="#292F33"/>
<path d="M53.5613 46.3157C53.5613 46.3157 53.5613 48.9473 50.9298 48.9473C48.2982 48.9473 45.6666 47.6315 45.6666 47.6315C43.035 39.7367 40.4034 35.7894 45.4666 33.271C49.3942 31.3183 52.2456 39.7367 53.5613 46.3157Z" fill="#A0041E"/>
<path d="M40.8193 27.6643C39.0877 27.8946 39.4074 26.0867 40.4035 25.263C41.8074 24.0999 45.0364 24.1709 46.4416 25.3354C47.8469 26.4999 47.8469 28.8301 46.4416 29.9933C45.4482 30.8157 45.0364 32.3222 45.0364 29.9933C45.0364 27.6643 43.6285 29.9946 43.6285 28.8301C43.6285 27.6643 40.8193 27.6643 40.8193 27.6643Z" fill="#B39155"/>
<path d="M48.2982 27.8946C48.2982 29.2904 47.7437 30.6291 46.7566 31.6162C45.7696 32.6032 44.4309 33.1577 43.035 33.1577C41.6391 33.1577 40.3004 32.6032 39.3134 31.6162C38.3264 30.6291 37.7719 29.2904 37.7719 27.8946C37.7719 26.4987 38.3264 25.16 39.3134 24.1729C40.3004 23.1859 41.6391 22.6314 43.035 22.6314C44.4309 22.6314 45.7696 23.1859 46.7566 24.1729C47.7437 25.16 48.2982 26.4987 48.2982 27.8946Z" fill="#D99E82"/>
<path d="M36.4561 27.8946C36.4561 27.8946 36.4561 22.6314 43.035 22.6314C48.2982 22.6314 48.2982 27.8946 48.2982 27.8946C48.2982 27.8946 48.2982 25.263 44.3508 25.263C41.7179 25.263 41.7192 29.2103 36.4561 27.8946Z" fill="#FDCB58"/>
<path d="M43.2232 37.7432C43.1864 37.8037 39.5061 43.8366 33.5666 45.0248L33.5719 45.0511C33.2752 45.1053 33.0068 45.2612 32.8127 45.492C32.6187 45.7228 32.5112 46.014 32.5087 46.3156C32.5087 46.6645 32.6474 46.9992 32.8941 47.246C33.1409 47.4927 33.4755 47.6313 33.8245 47.6313C33.9153 47.6313 33.9929 47.5971 34.0785 47.58L34.0837 47.605C41.1521 46.1919 45.3061 39.3866 45.4798 39.0971L43.2232 37.7432Z" fill="#D99E82"/>
</g>
</g>
<defs>
<clipPath id="clip0_399_1197">
<rect width="50" height="50" fill="white" transform="translate(20.6666 20)"/>
</clipPath>
</defs>
</svg>
