<svg width="70" height="70" viewBox="0 0 70 70" fill="none" xmlns="http://www.w3.org/2000/svg">
<g clip-path="url(#clip0_134_17735)">
<path d="M26.1702 44.7196C26.8762 44.5336 27.5726 44.3131 28.2571 44.0589C28.2877 44.048 28.3167 44.0267 28.3467 44.013C29.0635 44.5647 29.6436 45.2742 30.0419 46.0863C30.4403 46.8984 30.6461 47.7913 30.6436 48.6959C30.6451 48.9861 30.7618 49.2639 30.968 49.4681C31.1742 49.6723 31.4532 49.7862 31.7434 49.7847C32.0336 49.7833 32.3114 49.6666 32.5156 49.4603C32.7198 49.2541 32.8337 48.9752 32.8322 48.6849C32.8395 47.4722 32.5701 46.2739 32.0445 45.1809C31.519 44.088 30.7511 43.1293 29.7992 42.3778C30.3508 41.2883 30.7817 40.1418 31.0844 38.9588C33.2708 29.7089 29.8867 23.0885 21.0274 19.2811C16.5785 17.3698 8.96659 14.7448 10.3245 8.4694C10.3727 8.24617 10.3499 8.01344 10.2592 7.80385C10.1685 7.59425 10.0144 7.41831 9.81867 7.30071C9.6229 7.1831 9.39522 7.12972 9.16758 7.14807C8.93993 7.16641 8.72374 7.25555 8.54933 7.40299C4.43409 10.874 1.66417 14.0328 0.573701 19.0443C-0.176409 22.2645 -0.212072 25.6099 0.46922 28.8454C1.15051 32.0808 2.53222 35.1278 4.51722 37.7721C8.08339 42.6157 14.268 45.4201 20.685 45.4201C22.5358 45.4214 24.3791 45.1856 26.1702 44.7196ZM6.27979 36.476C4.48245 34.08 3.23167 31.3194 2.61538 28.3883C1.9991 25.4572 2.03226 22.4266 2.71253 19.5097C3.49292 15.9206 5.31347 13.3617 7.99534 10.8199C8.57722 16.8448 15.4197 19.2527 20.1628 21.2903C28.1209 24.7099 30.9143 30.1645 28.9549 38.4562C28.7069 39.3887 28.3743 40.2967 27.9612 41.1687C25.929 40.0241 21.2117 37.1081 18.3953 33.2828C18.2234 33.049 17.9657 32.8931 17.6789 32.8494C17.3921 32.8057 17.0997 32.8776 16.8659 33.0495C16.6322 33.2214 16.4763 33.4791 16.4326 33.7659C16.3888 34.0527 16.4608 34.3451 16.6327 34.5789C19.3217 38.2314 23.4539 41.0429 25.9186 42.5167C25.8191 42.5446 25.7163 42.578 25.6167 42.6042C19.6285 44.1678 11.0228 42.9171 6.27979 36.476Z" fill="#009688"/>
<path d="M64.3868 9.8524C60.6345 5.88961 55.4886 3.54069 50.0364 3.3019C44.5842 3.06311 39.2527 4.95315 35.1683 8.57271C35.1274 8.60823 35.0751 8.62778 35.0209 8.62778C34.9668 8.62778 34.9144 8.60823 34.8736 8.57271C31.6939 5.754 27.7345 3.96537 23.5176 3.44275C19.3007 2.92013 15.0245 3.68808 11.2529 5.64529C11.7454 6.02237 12.1205 6.53164 12.3346 7.11375C12.5486 7.69586 12.5929 8.32683 12.4621 8.9331C11.6582 12.6486 15.7646 14.6994 20.8041 16.8119C21.1814 16.9705 21.5457 17.1237 21.8907 17.2713C28.0207 19.9051 31.8493 23.877 33.2789 28.9843H40.9625C41.1187 28.9141 41.2561 28.8078 41.3633 28.6742L43.3556 20.4142C43.4418 20.0508 43.6483 19.7273 43.9415 19.4961C44.2348 19.2649 44.5976 19.1396 44.9711 19.1405C45.3418 19.1541 45.6969 19.2934 45.9781 19.5355C46.2592 19.7776 46.4497 20.1081 46.5182 20.4727L48.8287 32.8452L51.9503 24.3347C51.9612 24.3074 51.9721 24.279 51.9847 24.2527C52.1097 23.968 52.3144 23.7254 52.574 23.5543C52.8336 23.3831 53.1372 23.2907 53.4482 23.288H53.4487C53.7597 23.2903 54.0633 23.3825 54.3232 23.5533C54.583 23.7242 54.7879 23.9665 54.9132 24.2511L56.7846 28.5468C56.8671 28.7058 56.9708 28.8528 57.0931 28.9837H69.4229C70.241 25.6275 70.2088 22.1202 69.3294 18.7796C68.4501 15.4389 66.7512 12.3703 64.3868 9.85185V9.8524Z" fill="#009688"/>
<path d="M54.7893 29.4449L53.4954 26.4753L50.1502 35.5939C50.1392 35.6224 50.1283 35.6497 50.1157 35.677C49.9915 35.9612 49.7878 36.2033 49.5291 36.3743C49.2704 36.5453 48.9678 36.6378 48.6577 36.6406C48.5996 36.6407 48.5416 36.6376 48.4838 36.6313C48.1372 36.5902 47.8128 36.4397 47.5574 36.2017C47.3021 35.9638 47.1291 35.6507 47.0636 35.3079L44.8597 23.5063L43.4745 29.2485C43.294 29.7722 42.9658 30.2325 42.5295 30.5738C42.0932 30.9151 41.5675 31.1228 41.0157 31.1719H33.7313C34.0763 33.9434 33.9004 36.755 33.2129 39.462C33.004 40.282 32.7437 41.088 32.4336 41.8753C34.1195 43.7362 35.043 46.1637 35.0203 48.6746C35.0224 49.1056 34.9396 49.5328 34.7765 49.9318C34.6135 50.3307 34.3734 50.6937 34.0701 50.9999C33.7668 51.306 33.4061 51.5495 33.0086 51.7162C32.6112 51.883 32.1848 51.9698 31.7538 51.9717H31.7429C30.8753 51.9706 30.0433 51.627 29.4278 51.0156C28.8123 50.4042 28.4631 49.5744 28.4562 48.7069C28.4642 47.9283 28.2223 47.1678 27.766 46.5369C27.4149 46.6463 27.0677 46.7463 26.7215 46.836C24.7504 47.3492 22.7219 47.6084 20.6851 47.6071C18.3346 47.6084 15.9965 47.2678 13.7441 46.596L33.3097 66.0264C33.7684 66.4708 34.3819 66.7193 35.0206 66.7193C35.6592 66.7193 36.2728 66.4708 36.7315 66.0264L63.6815 39.2624C65.9736 36.987 67.7187 34.2205 68.7849 31.1719H56.8751C55.6052 31.1719 54.8216 29.5149 54.7893 29.4449Z" fill="#009688"/>
</g>
<defs>
<clipPath id="clip0_134_17735">
<rect width="70" height="70" fill="white"/>
</clipPath>
</defs>
</svg>
