<svg width="24" height="24" viewBox="0 0 24 24" fill="none" xmlns="http://www.w3.org/2000/svg">
<g clip-path="url(#clip0_738_1816)">
<mask id="mask0_738_1816" style="mask-type:luminance" maskUnits="userSpaceOnUse" x="0" y="0" width="24" height="24">
<path d="M0 9.53674e-07H24V24H0V9.53674e-07Z" fill="white"/>
</mask>
<g mask="url(#mask0_738_1816)">
<path d="M20.8422 22.105C20.8422 22.44 20.7091 22.7613 20.4722 22.9982C20.2353 23.2351 19.914 23.3682 19.579 23.3682H4.42112C4.08611 23.3682 3.76482 23.2351 3.52793 22.9982C3.29104 22.7613 3.15796 22.44 3.15796 22.105V5.05238C3.15796 4.71737 3.29104 4.39608 3.52793 4.15919C3.76482 3.9223 4.08611 3.78922 4.42112 3.78922H19.579C19.914 3.78922 20.2353 3.9223 20.4722 4.15919C20.7091 4.39608 20.8422 4.71737 20.8422 5.05238V22.105Z" fill="#C1694F"/>
<path d="M18.9475 20.8421C18.9475 21.0096 18.8809 21.1702 18.7625 21.2886C18.644 21.4071 18.4834 21.4736 18.3159 21.4736H5.68431C5.51681 21.4736 5.35616 21.4071 5.23772 21.2886C5.11928 21.1702 5.05273 21.0096 5.05273 20.8421V6.31574C5.05273 6.14823 5.11928 5.98759 5.23772 5.86914C5.35616 5.7507 5.51681 5.68416 5.68431 5.68416H18.3159C18.4834 5.68416 18.644 5.7507 18.7625 5.86914C18.8809 5.98759 18.9475 6.14823 18.9475 6.31574V20.8421Z" fill="#101828"/>
<path d="M16.4212 2.52621H13.8949C13.8949 2.27739 13.8459 2.03101 13.7506 1.80113C13.6554 1.57125 13.5159 1.36237 13.3399 1.18643C13.164 1.01049 12.9551 0.870923 12.7252 0.775704C12.4953 0.680484 12.2489 0.631476 12.0001 0.631476C11.7513 0.631476 11.5049 0.680484 11.275 0.775704C11.0452 0.870923 10.8363 1.01049 10.6603 1.18643C10.4844 1.36237 10.3448 1.57125 10.2496 1.80113C10.1544 2.03101 10.1054 2.27739 10.1054 2.52621H7.57908C7.24407 2.52621 6.92278 2.6593 6.68589 2.89618C6.449 3.13307 6.31592 3.45436 6.31592 3.78937V6.94727H17.6843V3.78937C17.6843 3.45436 17.5513 3.13307 17.3144 2.89618C17.0775 2.6593 16.7562 2.52621 16.4212 2.52621Z" fill="#CCD6DD"/>
<path d="M13.2633 2.5259C13.2632 2.69183 13.2305 2.85612 13.167 3.00939C13.1034 3.16267 13.0103 3.30193 12.893 3.41922C12.7756 3.53652 12.6363 3.62955 12.483 3.69301C12.3297 3.75646 12.1654 3.7891 11.9995 3.78906C11.8336 3.78902 11.6693 3.7563 11.516 3.69277C11.3627 3.62923 11.2235 3.53613 11.1062 3.41878C10.9889 3.30142 10.8958 3.16212 10.8324 3.00881C10.7689 2.8555 10.7363 2.69119 10.7363 2.52527C10.7364 2.19018 10.8696 1.86884 11.1066 1.63195C11.3436 1.39507 11.665 1.26203 12.0001 1.26212C12.3352 1.2622 12.6565 1.39539 12.8934 1.6324C13.1303 1.86941 13.2634 2.19081 13.2633 2.5259Z" fill="#292F33"/>
<path d="M13.2633 9.47389C13.2633 9.64139 13.1967 9.80204 13.0783 9.92048C12.9599 10.0389 12.7992 10.1055 12.6317 10.1055H6.9475C6.77999 10.1055 6.61935 10.0389 6.5009 9.92048C6.38246 9.80204 6.31592 9.64139 6.31592 9.47389C6.31592 9.30638 6.38246 9.14574 6.5009 9.0273C6.61935 8.90885 6.77999 8.84231 6.9475 8.84231H12.6317C12.7992 8.84231 12.9599 8.90885 13.0783 9.0273C13.1967 9.14574 13.2633 9.30638 13.2633 9.47389Z" fill="#99AAB5"/>
<path d="M17.6843 11.9993C17.6843 12.1668 17.6178 12.3274 17.4994 12.4459C17.3809 12.5643 17.2203 12.6309 17.0528 12.6309H6.9475C6.77999 12.6309 6.61935 12.5643 6.5009 12.4459C6.38246 12.3274 6.31592 12.1668 6.31592 11.9993C6.31592 11.8318 6.38246 11.6711 6.5009 11.5527C6.61935 11.4342 6.77999 11.3677 6.9475 11.3677H17.0528C17.2203 11.3677 17.3809 11.4342 17.4994 11.5527C17.6178 11.6711 17.6843 11.8318 17.6843 11.9993Z" fill="#99AAB5"/>
<path d="M17.6843 14.5256C17.6843 14.6932 17.6178 14.8538 17.4994 14.9722C17.3809 15.0907 17.2203 15.1572 17.0528 15.1572H6.9475C6.77999 15.1572 6.61935 15.0907 6.5009 14.9722C6.38246 14.8538 6.31592 14.6932 6.31592 14.5256C6.31592 14.3581 6.38246 14.1975 6.5009 14.0791C6.61935 13.9606 6.77999 13.8941 6.9475 13.8941H17.0528C17.2203 13.8941 17.3809 13.9606 17.4994 14.0791C17.6178 14.1975 17.6843 14.3581 17.6843 14.5256Z" fill="#99AAB5"/>
<path d="M17.6843 17.052C17.6843 17.2195 17.6178 17.3802 17.4994 17.4986C17.3809 17.6171 17.2203 17.6836 17.0528 17.6836H6.9475C6.77999 17.6836 6.61935 17.6171 6.5009 17.4986C6.38246 17.3802 6.31592 17.2195 6.31592 17.052C6.31592 16.8845 6.38246 16.7239 6.5009 16.6054C6.61935 16.487 6.77999 16.4204 6.9475 16.4204H17.0528C17.2203 16.4204 17.3809 16.487 17.4994 16.6054C17.6178 16.7239 17.6843 16.8845 17.6843 17.052Z" fill="#99AAB5"/>
<path d="M17.6842 19.5784C17.6842 19.7459 17.6176 19.9065 17.4992 20.025C17.3808 20.1434 17.2201 20.21 17.0526 20.21H11.3684C11.2009 20.21 11.0402 20.1434 10.9218 20.025C10.8034 19.9065 10.7368 19.7459 10.7368 19.5784C10.7368 19.4109 10.8034 19.2502 10.9218 19.1318C11.0402 19.0133 11.2009 18.9468 11.3684 18.9468H17.0526C17.2201 18.9468 17.3808 19.0133 17.4992 19.1318C17.6176 19.2502 17.6842 19.4109 17.6842 19.5784Z" fill="#99AAB5"/>
</g>
</g>
<defs>
<clipPath id="clip0_738_1816">
<rect width="24" height="24" fill="white"/>
</clipPath>
</defs>
</svg>
