<svg width="25" height="24" viewBox="0 0 25 24" fill="none" xmlns="http://www.w3.org/2000/svg">
<path d="M17.2502 3.56V2C17.2502 1.59 16.9102 1.25 16.5002 1.25C16.0902 1.25 15.7502 1.59 15.7502 2V3.5H9.25023V2C9.25023 1.59 8.91023 1.25 8.50023 1.25C8.09023 1.25 7.75023 1.59 7.75023 2V3.56C5.05023 3.81 3.74023 5.42 3.54023 7.81C3.52023 8.1 3.76023 8.34 4.04023 8.34H20.9602C21.2502 8.34 21.4902 8.09 21.4602 7.81C21.2602 5.42 19.9502 3.81 17.2502 3.56Z" fill="#009688"/>
<path opacity="0.4" d="M21.5 10.8401V12.5801C21.5 13.1901 20.96 13.6601 20.36 13.5601C20.08 13.5201 19.79 13.4901 19.5 13.4901C16.47 13.4901 14 15.9601 14 18.9901C14 19.4501 14.18 20.0901 14.37 20.6701C14.59 21.3201 14.11 21.9901 13.42 21.9901H8.5C5 21.9901 3.5 19.9901 3.5 16.9901V10.8301C3.5 10.2801 3.95 9.83008 4.5 9.83008H20.5C21.05 9.84008 21.5 10.2901 21.5 10.8401Z" fill="#009688"/>
<path d="M19.5 15C17.29 15 15.5 16.79 15.5 19C15.5 19.75 15.71 20.46 16.08 21.06C16.77 22.22 18.04 23 19.5 23C20.96 23 22.23 22.22 22.92 21.06C23.29 20.46 23.5 19.75 23.5 19C23.5 16.79 21.71 15 19.5 15ZM21.57 18.57L19.44 20.54C19.3 20.67 19.11 20.74 18.93 20.74C18.74 20.74 18.55 20.67 18.4 20.52L17.41 19.53C17.12 19.24 17.12 18.76 17.41 18.47C17.7 18.18 18.18 18.18 18.47 18.47L18.95 18.95L20.55 17.47C20.85 17.19 21.33 17.21 21.61 17.51C21.89 17.81 21.87 18.28 21.57 18.57Z" fill="#009688"/>
<path d="M9 14.9999C8.74 14.9999 8.48 14.8899 8.29 14.7099C8.11 14.5199 8 14.2599 8 13.9999C8 13.7399 8.11 13.4799 8.29 13.2899C8.52 13.0599 8.87 12.9499 9.2 13.0199C9.26 13.0299 9.32 13.0499 9.38 13.0799C9.44 13.0999 9.5 13.1299 9.56 13.1699C9.61 13.2099 9.66 13.2499 9.71 13.2899C9.89 13.4799 10 13.7399 10 13.9999C10 14.2599 9.89 14.5199 9.71 14.7099C9.66 14.7499 9.61 14.7899 9.56 14.8299C9.5 14.8699 9.44 14.8999 9.38 14.9199C9.32 14.9499 9.26 14.9699 9.2 14.9799C9.13 14.9899 9.06 14.9999 9 14.9999Z" fill="#009688"/>
<path d="M12.5 15.0002C12.24 15.0002 11.98 14.8902 11.79 14.7102C11.61 14.5202 11.5 14.2602 11.5 14.0002C11.5 13.7402 11.61 13.4802 11.79 13.2902C12.17 12.9202 12.84 12.9202 13.21 13.2902C13.39 13.4802 13.5 13.7402 13.5 14.0002C13.5 14.2602 13.39 14.5202 13.21 14.7102C13.02 14.8902 12.76 15.0002 12.5 15.0002Z" fill="#009688"/>
<path d="M9 18.4999C8.74 18.4999 8.48 18.3899 8.29 18.2099C8.11 18.0199 8 17.7599 8 17.4999C8 17.2399 8.11 16.9799 8.29 16.7899C8.39 16.6999 8.49 16.6299 8.62 16.5799C8.99 16.4199 9.43 16.5099 9.71 16.7899C9.89 16.9799 10 17.2399 10 17.4999C10 17.7599 9.89 18.0199 9.71 18.2099C9.52 18.3899 9.26 18.4999 9 18.4999Z" fill="#009688"/>
</svg>
