<svg width="24" height="24" viewBox="0 0 24 24" fill="none" xmlns="http://www.w3.org/2000/svg">
<g clip-path="url(#clip0_136_20190)">
<mask id="mask0_136_20190" style="mask-type:luminance" maskUnits="userSpaceOnUse" x="0" y="0" width="24" height="24">
<path d="M0 0H24V24H0V0Z" fill="white"/>
</mask>
<g mask="url(#mask0_136_20190)">
<path d="M20.8424 22.1055C20.8424 22.4405 20.7093 22.7618 20.4724 22.9987C20.2356 23.2356 19.9143 23.3687 19.5793 23.3687H4.42136C4.08635 23.3687 3.76506 23.2356 3.52817 22.9987C3.29129 22.7618 3.1582 22.4405 3.1582 22.1055V5.05286C3.1582 4.71785 3.29129 4.39656 3.52817 4.15968C3.76506 3.92279 4.08635 3.78971 4.42136 3.78971H19.5793C19.9143 3.78971 20.2356 3.92279 20.4724 4.15968C20.7093 4.39656 20.8424 4.71785 20.8424 5.05286V22.1055Z" fill="#C1694F"/>
<path d="M18.9475 20.8425C18.9475 21.01 18.8809 21.1707 18.7625 21.2891C18.644 21.4076 18.4834 21.4741 18.3159 21.4741H5.68431C5.51681 21.4741 5.35616 21.4076 5.23772 21.2891C5.11928 21.1707 5.05273 21.01 5.05273 20.8425V6.31623C5.05273 6.14872 5.11928 5.98808 5.23772 5.86963C5.35616 5.75119 5.51681 5.68465 5.68431 5.68465H18.3159C18.4834 5.68465 18.644 5.75119 18.7625 5.86963C18.8809 5.98808 18.9475 6.14872 18.9475 6.31623V20.8425Z" fill="#101828"/>
<path d="M16.4217 2.5267H13.8954C13.8954 2.27788 13.8463 2.0315 13.7511 1.80162C13.6559 1.57174 13.5163 1.36286 13.3404 1.18692C13.1645 1.01098 12.9556 0.871412 12.7257 0.776192C12.4958 0.680973 12.2494 0.631964 12.0006 0.631964C11.7518 0.631964 11.5054 0.680973 11.2755 0.776192C11.0457 0.871412 10.8368 1.01098 10.6608 1.18692C10.4849 1.36286 10.3453 1.57174 10.2501 1.80162C10.1549 2.0315 10.1059 2.27788 10.1059 2.5267H7.57956C7.24455 2.5267 6.92326 2.65978 6.68638 2.89667C6.44949 3.13356 6.31641 3.45485 6.31641 3.78986V6.94775H17.6848V3.78986C17.6848 3.45485 17.5517 3.13356 17.3149 2.89667C17.078 2.65978 16.7567 2.5267 16.4217 2.5267Z" fill="#CCD6DD"/>
<path d="M13.2633 2.52639C13.2632 2.69231 13.2305 2.8566 13.167 3.00988C13.1034 3.16316 13.0103 3.30242 12.893 3.41971C12.7756 3.53701 12.6363 3.63004 12.483 3.6935C12.3297 3.75695 12.1654 3.78959 11.9995 3.78955C11.8336 3.78951 11.6693 3.75679 11.516 3.69325C11.3627 3.62972 11.2235 3.53662 11.1062 3.41926C10.9889 3.30191 10.8958 3.1626 10.8324 3.0093C10.7689 2.85599 10.7363 2.69168 10.7363 2.52576C10.7364 2.19067 10.8696 1.86933 11.1066 1.63244C11.3436 1.39556 11.665 1.26252 12.0001 1.2626C12.3352 1.26269 12.6565 1.39588 12.8934 1.63289C13.1303 1.8699 13.2634 2.1913 13.2633 2.52639Z" fill="#292F33"/>
<path d="M13.2638 9.47389C13.2638 9.64139 13.1972 9.80204 13.0788 9.92048C12.9603 10.0389 12.7997 10.1055 12.6322 10.1055H6.94799C6.78048 10.1055 6.61984 10.0389 6.50139 9.92048C6.38295 9.80204 6.31641 9.64139 6.31641 9.47389C6.31641 9.30638 6.38295 9.14574 6.50139 9.0273C6.61984 8.90885 6.78048 8.84231 6.94799 8.84231H12.6322C12.7997 8.84231 12.9603 8.90885 13.0788 9.0273C13.1972 9.14574 13.2638 9.30638 13.2638 9.47389Z" fill="#99AAB5"/>
<path d="M17.6848 12.0003C17.6848 12.1678 17.6183 12.3284 17.4998 12.4469C17.3814 12.5653 17.2208 12.6318 17.0532 12.6318H6.94799C6.78048 12.6318 6.61983 12.5653 6.50139 12.4469C6.38295 12.3284 6.31641 12.1678 6.31641 12.0003C6.31641 11.8328 6.38295 11.6721 6.50139 11.5537C6.61983 11.4352 6.78048 11.3687 6.94799 11.3687H17.0532C17.2208 11.3687 17.3814 11.4352 17.4998 11.5537C17.6183 11.6721 17.6848 11.8328 17.6848 12.0003Z" fill="#99AAB5"/>
<path d="M17.6848 14.5266C17.6848 14.6941 17.6183 14.8548 17.4998 14.9732C17.3814 15.0917 17.2208 15.1582 17.0532 15.1582H6.94799C6.78048 15.1582 6.61983 15.0917 6.50139 14.9732C6.38295 14.8548 6.31641 14.6941 6.31641 14.5266C6.31641 14.3591 6.38295 14.1985 6.50139 14.08C6.61983 13.9616 6.78048 13.895 6.94799 13.895H17.0532C17.2208 13.895 17.3814 13.9616 17.4998 14.08C17.6183 14.1985 17.6848 14.3591 17.6848 14.5266Z" fill="#99AAB5"/>
<path d="M17.6848 17.053C17.6848 17.2205 17.6183 17.3811 17.4998 17.4996C17.3814 17.618 17.2208 17.6846 17.0532 17.6846H6.94799C6.78048 17.6846 6.61983 17.618 6.50139 17.4996C6.38295 17.3811 6.31641 17.2205 6.31641 17.053C6.31641 16.8855 6.38295 16.7248 6.50139 16.6064C6.61983 16.488 6.78048 16.4214 6.94799 16.4214H17.0532C17.2208 16.4214 17.3814 16.488 17.4998 16.6064C17.6183 16.7248 17.6848 16.8855 17.6848 17.053Z" fill="#99AAB5"/>
<path d="M17.6847 19.5794C17.6847 19.7469 17.6181 19.9075 17.4997 20.026C17.3812 20.1444 17.2206 20.2109 17.0531 20.2109H11.3689C11.2014 20.2109 11.0407 20.1444 10.9223 20.026C10.8038 19.9075 10.7373 19.7469 10.7373 19.5794C10.7373 19.4119 10.8038 19.2512 10.9223 19.1328C11.0407 19.0143 11.2014 18.9478 11.3689 18.9478H17.0531C17.2206 18.9478 17.3812 19.0143 17.4997 19.1328C17.6181 19.2512 17.6847 19.4119 17.6847 19.5794Z" fill="#99AAB5"/>
</g>
</g>
<defs>
<clipPath id="clip0_136_20190">
<rect width="24" height="24" fill="white"/>
</clipPath>
</defs>
</svg>
