<svg width="24" height="24" viewBox="0 0 24 24" fill="none" xmlns="http://www.w3.org/2000/svg">
<path d="M17.625 5.25H19.5C20.325 5.25 21 5.925 21 6.75V18C21 18.825 20.325 19.5 19.5 19.5H4.5C3.675 19.5 3 18.825 3 18V6.75C3 5.925 3.675 5.25 4.5 5.25H6.375" fill="#E5E5E5"/>
<path d="M19.5 5.25H17.625H6.375H4.5C3.675 5.25 3 5.925 3 6.75V8.625H21V6.75C21 5.925 20.325 5.25 19.5 5.25Z" fill="#EA685E"/>
<path d="M13.125 5.25H15.375" stroke="#2C3E50" stroke-miterlimit="10" stroke-linecap="round" stroke-linejoin="round"/>
<path d="M8.625 5.25H10.875" stroke="#2C3E50" stroke-miterlimit="10" stroke-linecap="round" stroke-linejoin="round"/>
<path d="M13.125 19.5H4.5C3.675 19.5 3 18.825 3 18V6.75C3 5.925 3.675 5.25 4.5 5.25H6.375" stroke="#2C3E50" stroke-miterlimit="10" stroke-linecap="round" stroke-linejoin="round"/>
<path d="M17.625 5.25H19.5C20.325 5.25 21 5.925 21 6.75V13.125" stroke="#2C3E50" stroke-miterlimit="10" stroke-linecap="round" stroke-linejoin="round"/>
<path d="M10.875 12.0752C11.0821 12.0752 11.25 11.9073 11.25 11.7002C11.25 11.4931 11.0821 11.3252 10.875 11.3252C10.6679 11.3252 10.5 11.4931 10.5 11.7002C10.5 11.9073 10.6679 12.0752 10.875 12.0752Z" stroke="#2C3E50" stroke-miterlimit="10" stroke-linecap="round" stroke-linejoin="round"/>
<path d="M13.5 12.0752C13.7071 12.0752 13.875 11.9073 13.875 11.7002C13.875 11.4931 13.7071 11.3252 13.5 11.3252C13.2929 11.3252 13.125 11.4931 13.125 11.7002C13.125 11.9073 13.2929 12.0752 13.5 12.0752Z" stroke="#2C3E50" stroke-miterlimit="10" stroke-linecap="round" stroke-linejoin="round"/>
<path d="M16.125 12.0752C16.3321 12.0752 16.5 11.9073 16.5 11.7002C16.5 11.4931 16.3321 11.3252 16.125 11.3252C15.9179 11.3252 15.75 11.4931 15.75 11.7002C15.75 11.9073 15.9179 12.0752 16.125 12.0752Z" stroke="#2C3E50" stroke-miterlimit="10" stroke-linecap="round" stroke-linejoin="round"/>
<path d="M18.75 12.0752C18.9571 12.0752 19.125 11.9073 19.125 11.7002C19.125 11.4931 18.9571 11.3252 18.75 11.3252C18.5429 11.3252 18.375 11.4931 18.375 11.7002C18.375 11.9073 18.5429 12.0752 18.75 12.0752Z" stroke="#2C3E50" stroke-miterlimit="10" stroke-linecap="round" stroke-linejoin="round"/>
<path d="M10.875 14.7002C11.0821 14.7002 11.25 14.5323 11.25 14.3252C11.25 14.1181 11.0821 13.9502 10.875 13.9502C10.6679 13.9502 10.5 14.1181 10.5 14.3252C10.5 14.5323 10.6679 14.7002 10.875 14.7002Z" stroke="#2C3E50" stroke-miterlimit="10" stroke-linecap="round" stroke-linejoin="round"/>
<path d="M8.25 14.7002C8.45711 14.7002 8.625 14.5323 8.625 14.3252C8.625 14.1181 8.45711 13.9502 8.25 13.9502C8.04289 13.9502 7.875 14.1181 7.875 14.3252C7.875 14.5323 8.04289 14.7002 8.25 14.7002Z" stroke="#2C3E50" stroke-miterlimit="10" stroke-linecap="round" stroke-linejoin="round"/>
<path d="M5.625 14.7002C5.83211 14.7002 6 14.5323 6 14.3252C6 14.1181 5.83211 13.9502 5.625 13.9502C5.41789 13.9502 5.25 14.1181 5.25 14.3252C5.25 14.5323 5.41789 14.7002 5.625 14.7002Z" stroke="#2C3E50" stroke-miterlimit="10" stroke-linecap="round" stroke-linejoin="round"/>
<path d="M13.5 14.7002C13.7071 14.7002 13.875 14.5323 13.875 14.3252C13.875 14.1181 13.7071 13.9502 13.5 13.9502C13.2929 13.9502 13.125 14.1181 13.125 14.3252C13.125 14.5323 13.2929 14.7002 13.5 14.7002Z" stroke="#2C3E50" stroke-miterlimit="10" stroke-linecap="round" stroke-linejoin="round"/>
<path d="M10.875 17.3252C11.0821 17.3252 11.25 17.1573 11.25 16.9502C11.25 16.7431 11.0821 16.5752 10.875 16.5752C10.6679 16.5752 10.5 16.7431 10.5 16.9502C10.5 17.1573 10.6679 17.3252 10.875 17.3252Z" stroke="#2C3E50" stroke-miterlimit="10" stroke-linecap="round" stroke-linejoin="round"/>
<path d="M8.25 17.3252C8.45711 17.3252 8.625 17.1573 8.625 16.9502C8.625 16.7431 8.45711 16.5752 8.25 16.5752C8.04289 16.5752 7.875 16.7431 7.875 16.9502C7.875 17.1573 8.04289 17.3252 8.25 17.3252Z" stroke="#2C3E50" stroke-miterlimit="10" stroke-linecap="round" stroke-linejoin="round"/>
<path d="M5.625 17.3252C5.83211 17.3252 6 17.1573 6 16.9502C6 16.7431 5.83211 16.5752 5.625 16.5752C5.41789 16.5752 5.25 16.7431 5.25 16.9502C5.25 17.1573 5.41789 17.3252 5.625 17.3252Z" stroke="#2C3E50" stroke-miterlimit="10" stroke-linecap="round" stroke-linejoin="round"/>
<path d="M12 6V3.75" stroke="#2C3E50" stroke-miterlimit="10" stroke-linecap="round" stroke-linejoin="round"/>
<path d="M7.5 6V3.75" stroke="#2C3E50" stroke-miterlimit="10" stroke-linecap="round" stroke-linejoin="round"/>
<path d="M16.5 6V3.75" stroke="#2C3E50" stroke-miterlimit="10" stroke-linecap="round" stroke-linejoin="round"/>
<path d="M3 8.625H21" stroke="#2C3E50" stroke-miterlimit="10" stroke-linecap="round" stroke-linejoin="round"/>
<path d="M18.4501 22.1629C20.749 22.1629 22.6126 20.2993 22.6126 18.0004C22.6126 15.7015 20.749 13.8379 18.4501 13.8379C16.1512 13.8379 14.2876 15.7015 14.2876 18.0004C14.2876 20.2993 16.1512 22.1629 18.4501 22.1629Z" fill="#D4C8BC"/>
<path d="M16.2749 14.4378L18.3749 17.9253L22.3499 16.5753C22.3499 16.5753 21.6374 14.7003 19.8749 14.1003C18.1124 13.4628 16.7624 14.1003 16.2749 14.4378Z" fill="#FFD766"/>
<path d="M18.4501 22.1629C20.749 22.1629 22.6126 20.2993 22.6126 18.0004C22.6126 15.7015 20.749 13.8379 18.4501 13.8379C16.1512 13.8379 14.2876 15.7015 14.2876 18.0004C14.2876 20.2993 16.1512 22.1629 18.4501 22.1629Z" stroke="#2C3E50" stroke-miterlimit="10" stroke-linecap="round" stroke-linejoin="round"/>
<path d="M18.45 18.0002L20.3625 17.3252" stroke="#2C3E50" stroke-miterlimit="10" stroke-linecap="round" stroke-linejoin="round"/>
<path d="M18.4501 18.0004L16.9126 15.5254" stroke="#2C3E50" stroke-miterlimit="10" stroke-linecap="round" stroke-linejoin="round"/>
</svg>
