<svg width="24" height="24" viewBox="0 0 24 24" fill="none" xmlns="http://www.w3.org/2000/svg">
<path d="M19.5384 14.6114C20.1242 14.0257 20.1242 13.0759 19.5384 12.4901C18.9526 11.9043 18.0029 11.9043 17.4171 12.4901C16.8313 13.0759 16.8313 14.0257 17.4171 14.6114C18.0029 15.1972 18.9526 15.1972 19.5384 14.6114Z" fill="#FFDC7B" stroke="#373449" stroke-linecap="round" stroke-linejoin="round"/>
<path d="M17.6826 14.3462L19.2736 12.7552" stroke="#373449" stroke-linecap="round" stroke-linejoin="round"/>
<path d="M18.4411 17.0759C17.903 16.7652 17.215 16.9496 16.9043 17.4876C16.5936 18.0257 16.778 18.7138 17.3161 19.0244L19.2646 20.1494C19.8027 20.4601 20.4908 20.2757 20.8014 19.7376C21.1121 19.1996 20.9277 18.5115 20.3896 18.2009L18.4411 17.0759Z" fill="#2E7DD0" stroke="#373449" stroke-linecap="round" stroke-linejoin="round"/>
<path d="M18.29 19.5869L19.415 17.6384" stroke="#373449"/>
<path d="M19.4273 9.81766C19.8507 10.5297 20.7712 10.7637 21.4832 10.3403C22.1953 9.91694 22.4293 8.99647 22.0059 8.28441C21.5825 7.57236 20.662 7.33835 19.95 7.76174C19.2379 8.18514 19.0039 9.1056 19.4273 9.81766Z" fill="#CDD7E0" stroke="#373449" stroke-linecap="round" stroke-linejoin="round"/>
<path d="M20.1416 8.08398L21.2915 10.0179L20.1416 8.08398Z" fill="#CDD7E0"/>
<path d="M20.1416 8.08398L21.2915 10.0179" stroke="#373449" stroke-linecap="round" stroke-linejoin="round"/>
<path d="M4.05273 3.37891H12.2832V5.64091H4.05273V3.37891Z" fill="#CDD7E0"/>
<path d="M5.57328 5.62891V7.12891C5.57328 8.52691 1.80078 6.78916 1.80078 9.75391V20.6207H14.5733V9.76666C14.5733 6.72541 10.8443 8.40391 10.8443 7.12891V5.62891H5.57328Z" fill="#A0E06E"/>
<path d="M7.0498 12.4148V14.2666H5.1748V16.5391H7.0498V18.3916H9.3238V16.5391H11.1748V14.2666H9.3223V12.4141L7.0498 12.4148Z" fill="#FF5855" stroke="#373449" stroke-linecap="round" stroke-linejoin="round"/>
<path d="M5.56915 5.62891V7.12891C5.56915 8.52616 1.7959 6.78841 1.7959 9.75391V20.6289H2.94415V9.75391C2.94415 7.75891 6.7174 9.09691 6.7174 7.12891V5.62891H5.56915Z" fill="#B6E887"/>
<path d="M10.8004 5.62891V7.12891C10.8004 8.52691 14.5744 6.78916 14.5744 9.75391V20.6289H13.4254V9.75391C13.4254 7.75891 9.65137 9.09691 9.65137 7.12891V5.62891H10.8004Z" fill="#8AC45F"/>
<path d="M1.79004 10.1289H14.561M5.57304 5.62891V7.12891C5.57304 8.52691 1.80054 6.78916 1.80054 9.75391V20.6207H14.573V9.76666C14.573 6.72541 10.844 8.40391 10.844 7.12891V5.62891H5.57304Z" stroke="#373449" stroke-linecap="round" stroke-linejoin="round"/>
<path d="M4.0459 3.37891V5.65216H5.19415V3.37891H4.0459ZM5.9599 3.37891V5.65291H6.69415V3.37891H5.9599Z" fill="#F4F4F4"/>
<path d="M4.06836 3.37891H12.2989V5.64091H4.06836V3.37891Z" stroke="#373449" stroke-linecap="round" stroke-linejoin="round"/>
</svg>
