<svg width="16" height="20" viewBox="0 0 16 20" fill="none" xmlns="http://www.w3.org/2000/svg">
<path d="M15.0319 0.749023H0.653807C0.292719 0.749023 0 1.01844 0 1.35078V19.3978C0 19.7302 0.292719 19.9997 0.653807 19.9997H15.0319C15.3929 19.9997 15.6857 19.7302 15.6857 19.3978V1.35078C15.6857 1.01844 15.3929 0.749023 15.0319 0.749023Z" fill="#F8B84E"/>
<path d="M13.725 2.1748H1.96076C1.66544 2.1748 1.42603 2.40432 1.42603 2.68744V18.0608C1.42603 18.3439 1.66544 18.5735 1.96076 18.5735H13.725C14.0203 18.5735 14.2598 18.3439 14.2598 18.0608V2.68744C14.2598 2.40432 14.0203 2.1748 13.725 2.1748Z" fill="#E9EDED"/>
<path d="M6.01324 3.45443e-06C5.92571 -0.000279055 5.83899 0.0167693 5.75806 0.0501352C5.67714 0.0835011 5.60362 0.132545 5.54172 0.194438C5.47983 0.256332 5.43079 0.32984 5.39742 0.410762C5.36406 0.491683 5.34703 0.578416 5.34731 0.665946V1.46235H4.27783V2.88832H11.4077V1.46235H10.3382V0.665946C10.3385 0.578416 10.3215 0.491683 10.2881 0.410762C10.2547 0.32984 10.2057 0.256332 10.1438 0.194438C10.0819 0.132545 10.0084 0.0835011 9.92745 0.0501352C9.84653 0.0167693 9.75981 -0.000279055 9.67228 3.45443e-06H6.01324Z" fill="#F05542"/>
<path d="M2.85205 4.6709H12.8338M2.85205 6.09687H12.8338M2.85205 7.52284H12.8338M2.85205 8.94881H12.8338M2.85205 10.3748H12.8338M2.85205 11.8007H12.8338M2.85205 13.2267H12.8338M2.85205 14.6527H12.8338M2.85205 16.0787H7.60338" stroke="#576D7E"/>
<path d="M12.6556 16.4346H14.2598L12.1208 18.5735V16.9472C12.1208 16.6634 12.3597 16.4346 12.6556 16.4346Z" fill="#D4DADF"/>
<path fill-rule="evenodd" clip-rule="evenodd" d="M8.9987 12.1922L9.36797 11.8229C9.47332 11.7176 9.59289 11.6322 9.70876 11.5796L10.9922 10.9961C11.0246 10.9814 11.0552 10.9737 11.0816 10.9737C11.1079 10.9737 11.1293 10.9814 11.1441 10.9961C11.1588 11.0109 11.1665 11.0323 11.1665 11.0586C11.1665 11.085 11.1588 11.1156 11.1441 11.148L10.5821 12.3846C10.5155 12.531 10.4076 12.682 10.2745 12.815L10.1505 12.939C10.1106 12.9789 10.0672 13.0145 10.0227 13.0437C9.97819 13.0729 9.93353 13.0952 9.89122 13.1093C9.8489 13.1234 9.80978 13.129 9.77608 13.1259C9.74239 13.1227 9.71477 13.1108 9.69482 13.0909L8.94805 12.3441C8.93462 12.3307 8.93242 12.3071 8.94191 12.2787C8.95141 12.2502 8.97184 12.2191 8.9987 12.1922Z" fill="#FEE8B9"/>
<path d="M3.41968 18.2073L3.30007 18.0877C3.24572 18.0333 3.28004 17.9109 3.37668 17.8142L9.35526 11.8357C9.4519 11.739 9.57429 11.7047 9.62864 11.7591L9.74825 11.8787C9.8026 11.9331 9.76833 12.0554 9.67169 12.1521L3.69311 18.1307C3.59646 18.2273 3.47403 18.2616 3.41968 18.2073Z" fill="#FCD062"/>
<path d="M3.83474 18.6221L3.51831 18.3057L9.84689 11.9771L10.1633 12.2935L3.83474 18.6221Z" fill="#F8B84E"/>
<path d="M4.05274 18.8401L3.93313 18.7205C3.87878 18.6661 3.91309 18.5437 4.00973 18.4471L9.98831 12.4685C10.085 12.3718 10.2074 12.3376 10.2617 12.3919L10.3813 12.5115C10.4357 12.5659 10.4014 12.6883 10.3047 12.7849L4.32616 18.7635C4.22952 18.8601 4.10709 18.8944 4.05274 18.8401Z" fill="#F17F53"/>
<path d="M3.51857 18.3057L3.36035 18.1475L9.68893 11.8189L9.84714 11.9771L3.51857 18.3057Z" fill="#FCD062"/>
<path d="M3.99293 18.7803L3.83472 18.6221L10.1633 12.2935L10.3215 12.4517L3.99293 18.7803Z" fill="#F17F53"/>
<path d="M3.67608 19.0967L3.04322 18.4639C2.95584 18.3765 3.02668 18.164 3.20144 17.9892C3.3762 17.8145 3.5887 17.7436 3.67608 17.831L4.30894 18.4639C4.39632 18.5513 4.32548 18.7638 4.15072 18.9385C3.97597 19.1133 3.76346 19.1841 3.67608 19.0967Z" fill="#617A8D"/>
<path d="M4.784 18.3057L3.83472 17.3564L3.20186 17.9893L4.15115 18.9386L4.784 18.3057Z" fill="#617A8D"/>
<path d="M4.784 18.3057L3.83472 17.3564L3.51829 17.6729L4.46757 18.6222L4.784 18.3057Z" fill="#34485C"/>
<path d="M11.1896 10.8975L10.6311 11.1617C10.5776 11.1912 10.5409 11.2583 10.5646 11.282L10.8602 11.5775C10.8842 11.6016 10.951 11.5646 10.9805 11.5111L11.2434 10.9513C11.2731 10.8975 11.2434 10.8678 11.1896 10.8975Z" fill="#34485C"/>
</svg>
