<svg width="16" height="20" viewBox="0 0 16 20" fill="none" xmlns="http://www.w3.org/2000/svg">
<path d="M15.0319 0.749023H0.653807C0.292719 0.749023 0 1.01844 0 1.35078V19.3978C0 19.7302 0.292719 19.9997 0.653807 19.9997H15.0319C15.3929 19.9997 15.6857 19.7302 15.6857 19.3978V1.35078C15.6857 1.01844 15.3929 0.749023 15.0319 0.749023Z" fill="#F8B84E"/>
<path d="M13.7248 2.17529H1.96052C1.66519 2.17529 1.42578 2.4048 1.42578 2.68792V18.0613C1.42578 18.3444 1.66519 18.574 1.96052 18.574H13.7248C14.0201 18.574 14.2595 18.3444 14.2595 18.0613V2.68792C14.2595 2.4048 14.0201 2.17529 13.7248 2.17529Z" fill="#E9EDED"/>
<path d="M6.01373 3.45443e-06C5.9262 -0.000279055 5.83947 0.0167693 5.75855 0.0501352C5.67763 0.0835011 5.60411 0.132545 5.54221 0.194438C5.48032 0.256332 5.43128 0.32984 5.39791 0.410762C5.36455 0.491683 5.34752 0.578416 5.3478 0.665946V1.46235H4.27832V2.88832H11.4082V1.46235H10.3387V0.665946C10.339 0.578416 10.3219 0.491683 10.2886 0.410762C10.2552 0.32984 10.2062 0.256332 10.1443 0.194438C10.0824 0.132545 10.0089 0.0835011 9.92794 0.0501352C9.84702 0.0167693 9.76029 -0.000279055 9.67276 3.45443e-06H6.01373Z" fill="#F05542"/>
<path d="M2.85156 4.67041H12.8334M2.85156 6.09638H12.8334M2.85156 7.52235H12.8334M2.85156 8.94832H12.8334M2.85156 10.3743H12.8334M2.85156 11.8003H12.8334M2.85156 13.2262H12.8334M2.85156 14.6522H12.8334M2.85156 16.0782H7.60289" stroke="#576D7E"/>
<path d="M12.6558 16.4351H14.26L12.1211 18.574V16.9477C12.1211 16.6639 12.3599 16.4351 12.6558 16.4351Z" fill="#D4DADF"/>
<path fill-rule="evenodd" clip-rule="evenodd" d="M8.99919 12.1922L9.36846 11.8229C9.47381 11.7176 9.59338 11.6322 9.70924 11.5796L10.9927 10.9961C11.0251 10.9814 11.0557 10.9737 11.0821 10.9737C11.1084 10.9737 11.1298 10.9814 11.1446 10.9961C11.1593 11.0109 11.167 11.0323 11.167 11.0586C11.167 11.085 11.1593 11.1156 11.1446 11.148L10.5826 12.3846C10.516 12.531 10.4081 12.682 10.275 12.815L10.151 12.939C10.1111 12.9789 10.0677 13.0145 10.0232 13.0437C9.97868 13.0729 9.93402 13.0952 9.8917 13.1093C9.84939 13.1234 9.81026 13.129 9.77657 13.1259C9.74288 13.1227 9.71526 13.1108 9.69531 13.0909L8.94854 12.3441C8.93511 12.3307 8.93291 12.3071 8.9424 12.2787C8.9519 12.2502 8.97233 12.2191 8.99919 12.1922Z" fill="#FEE8B9"/>
<path d="M3.42017 18.2068L3.30056 18.0872C3.24621 18.0328 3.28052 17.9104 3.37717 17.8138L9.35575 11.8352C9.45239 11.7385 9.57478 11.7043 9.62913 11.7586L9.74874 11.8782C9.80309 11.9326 9.76882 12.055 9.67217 12.1516L3.69359 18.1302C3.59695 18.2268 3.47452 18.2611 3.42017 18.2068Z" fill="#FCD062"/>
<path d="M3.83498 18.6216L3.51855 18.3052L9.84713 11.9766L10.1636 12.293L3.83498 18.6216Z" fill="#F8B84E"/>
<path d="M4.05298 18.8401L3.93337 18.7205C3.87902 18.6661 3.91334 18.5437 4.00998 18.4471L9.98856 12.4685C10.0852 12.3718 10.2076 12.3376 10.2619 12.3919L10.3816 12.5115C10.4359 12.5659 10.4016 12.6883 10.305 12.7849L4.32641 18.7635C4.22977 18.8601 4.10733 18.8944 4.05298 18.8401Z" fill="#F17F53"/>
<path d="M3.51954 18.3052L3.36133 18.147L9.6899 11.8184L9.84812 11.9766L3.51954 18.3052Z" fill="#FCD062"/>
<path d="M3.99318 18.7803L3.83496 18.6221L10.1635 12.2935L10.3218 12.4517L3.99318 18.7803Z" fill="#F17F53"/>
<path d="M3.67681 19.0962L3.04396 18.4634C2.95658 18.376 3.02741 18.1635 3.20217 17.9887C3.37693 17.814 3.58943 17.7432 3.67681 17.8305L4.30967 18.4634C4.39705 18.5508 4.32622 18.7633 4.15146 18.938C3.9767 19.1128 3.76419 19.1836 3.67681 19.0962Z" fill="#617A8D"/>
<path d="M4.78425 18.3052L3.83496 17.356L3.2021 17.9888L4.15139 18.9381L4.78425 18.3052Z" fill="#617A8D"/>
<path d="M4.78425 18.3052L3.83496 17.356L3.51853 17.6724L4.46782 18.6217L4.78425 18.3052Z" fill="#34485C"/>
<path d="M11.1903 10.8965L10.6318 11.1608C10.5784 11.1902 10.5416 11.2573 10.5654 11.281L10.8609 11.5766C10.885 11.6006 10.9518 11.5636 10.9812 11.5101L11.2441 10.9503C11.2739 10.8965 11.2441 10.8668 11.1903 10.8965Z" fill="#34485C"/>
</svg>
