<svg width="92" height="92" viewBox="0 0 92 92" fill="none" xmlns="http://www.w3.org/2000/svg">
<circle cx="46" cy="46" r="46" fill="#E6F5FC"/>
<path d="M58.0313 69.125C58.0313 69.125 56.625 69.3594 54.4375 69.5938C54.2812 69.5938 54.125 69.5937 53.9688 69.6719L53.8125 69.8281C52.9531 70.5312 51.0781 71 48.8906 71C47.4844 71 46.2344 70.7656 45.2188 70.4531C44.2812 70.7656 42.9531 71 41.5469 71C39.9844 71 38.5781 70.7656 37.6406 70.375C37.5625 70.375 37.4062 70.2969 37.3281 70.2187H37.0938C35.4531 70.0625 33.8125 69.8281 32.4062 69.5156L44.2031 64.9062L58.0313 69.125Z" fill="#FDD985"/>
<path d="M66.5469 65.1406C66.5469 66.8594 64.0469 68.4219 60.0625 69.5156L58.0312 69.125L55.6094 68.6562L54.4375 68.4219L46.9375 67.0938C45.4531 66.7812 43.8906 66.8594 42.4062 67.1719L37.6406 68.2656L36.5469 68.5L34.9062 68.8906L32.4062 69.4375C32.0938 69.3594 31.7812 69.2813 31.5469 69.2031C28.1094 68.1094 25.9219 66.625 25.9219 65.0625C25.9219 63.3438 28.2656 61.8594 32.1719 60.7656C33.7344 60.2969 35.4531 59.9844 37.4062 59.6719H55.1406C61.8594 60.6875 66.5469 62.7188 66.5469 65.1406Z" fill="#53C5E7"/>
<path d="M37.9531 61L38.5 60.6094C39.125 61.3906 39.5156 62.4063 39.75 63.5C39.75 63.4219 38.4219 61.7031 37.9531 61ZM52.6406 63.4219C52.875 62.3281 53.3437 61.3125 53.8906 60.5312L54.4375 60.9219C53.9687 61.7031 52.6406 63.4219 52.6406 63.4219Z" fill="#379FC9"/>
<path d="M52.7187 29.75V38.2656C47.7187 34.5938 43.1875 34.5156 39.2031 38.2656V29.9062L39.75 29.6719C39.75 29.6719 43.4219 26.5469 43.5 24.4375C43.5 24.4375 46.5469 28.6563 51.7813 29.6719C52.0938 29.6719 52.4062 29.75 52.7187 29.75Z" fill="#123751"/>
<path d="M50.7656 41.1562C50.7656 44.5937 48.5781 47.4062 45.9219 47.4062C43.2656 47.4062 41.0781 44.5937 41.0781 41.1562V40.4531H42.875C42.7969 40.2187 42.7969 40.0625 42.7969 39.8281V38.0312C43.6562 38.7344 44.6719 39.0469 45.7656 39.0469C46.8594 39.0469 47.9531 38.6562 48.8125 37.9531V39.8281C48.8125 40.0625 48.8125 40.2187 48.7344 40.4531H50.6875C50.7656 40.6875 50.7656 40.9219 50.7656 41.1562Z" fill="#FDC87C"/>
<path d="M48.9687 36.3125V37.9531C48.1094 38.6563 47.0156 39.0469 45.9219 39.0469C44.8281 39.0469 43.8125 38.6562 42.9531 38.0312V36.3125H48.9687Z" fill="#FDC87C"/>
<path d="M51.7813 31.3906C51.7813 33.4219 51.1562 35.2969 50.1406 36.7031C49.8281 37.1719 49.4375 37.5625 48.9688 37.9531C48.1094 38.6562 47.0156 39.0469 45.9219 39.0469C44.8281 39.0469 43.8125 38.6562 42.9531 38.0312C42.4063 37.6406 41.9375 37.1719 41.5469 36.5469C40.6094 35.2187 39.9844 33.3438 39.9844 31.3906C39.9844 30.6094 40.0625 29.9062 40.2188 29.2031C40.5313 28.0312 41 26.9375 41.625 26.0781C41.8594 25.7656 42.0938 25.4531 42.4063 25.2188C42.5625 25.0625 42.7969 24.9063 42.9531 24.75C43.0313 24.75 43.0312 24.6719 43.1094 24.6719C43.1875 24.5937 43.3438 24.5156 43.5 24.4375C43.5781 24.4375 43.5781 24.3594 43.6563 24.3594C44.3594 23.9688 45.0625 23.8125 45.9219 23.8125C46.7813 23.8125 47.5625 24.0469 48.2656 24.4375C48.3438 24.5156 48.5 24.5937 48.5781 24.6719C48.6562 24.75 48.7344 24.75 48.8125 24.8281C49.0469 24.9844 49.2031 25.1406 49.4375 25.2969C49.75 25.5313 49.9844 25.8438 50.2188 26.1562C50.9219 27.0938 51.3906 28.2656 51.7031 29.5938C51.7031 30.1406 51.7813 30.7656 51.7813 31.3906Z" fill="#FDD985"/>
<path d="M52.7187 27.7188V29.6719C52.4844 29.6719 52.1719 29.6719 51.7813 29.5938C46.5469 28.5781 43.5 24.3594 43.5 24.3594C43.4219 26.4688 39.75 29.5938 39.75 29.5938L39.2031 29.8281V27.7188C39.2031 23.9688 42.25 21 45.9219 21C47.7969 21 49.4375 21.7812 50.6875 22.9531C51.9375 24.2031 52.7187 25.9219 52.7187 27.7188Z" fill="#123751"/>
<path d="M49.9844 25.1407C50.1406 25.0625 50.2187 24.9063 50.2187 24.75C52.3281 24.6719 51.0781 26.9375 49.9844 25.1407ZM49.5156 25.1407C49.5937 25.2188 49.6719 25.2188 49.75 25.2188C49.8281 25.2188 49.9062 25.2188 49.9844 25.1407C51 26.9375 48.4219 26.9375 49.5156 25.1407Z" fill="#DCE0E0"/>
<path d="M49.5156 25.1406C48.4219 26.9375 47.1719 24.75 49.2812 24.75C49.2031 24.8281 49.3594 25.0625 49.5156 25.1406ZM49.5156 24.2812C49.3594 24.3594 49.2812 24.5156 49.2812 24.6719C47.0937 24.6719 48.4219 22.4062 49.5156 24.2812ZM49.9844 24.2812C49.9062 24.2031 49.8281 24.2031 49.75 24.2031C49.6719 24.2031 49.5937 24.2031 49.5156 24.2812C48.4219 22.4062 51 22.4062 49.9844 24.2812ZM50.2187 24.6719C50.2187 24.5156 50.1406 24.3594 49.9844 24.2812C51.0781 22.4062 52.3281 24.6719 50.2187 24.6719Z" fill="#DCE0E0"/>
<path d="M50.2188 24.6719C50.2188 24.8281 50.1406 24.9844 49.9844 25.0625C49.9062 25.1406 49.8281 25.1406 49.75 25.1406C49.6719 25.1406 49.5937 25.1406 49.5156 25.0625C49.3594 24.9844 49.2812 24.8281 49.2812 24.6719C49.2812 24.5156 49.3594 24.3594 49.5156 24.2812C49.5937 24.2031 49.6719 24.2031 49.75 24.2031C49.8281 24.2031 49.9062 24.2031 49.9844 24.2812C50.1406 24.3594 50.2188 24.5156 50.2188 24.6719Z" fill="#379FC9"/>
<path d="M42.4063 25.1406C42.5625 25.0625 42.6407 24.9063 42.6407 24.75C44.75 24.6719 43.4219 26.9375 42.4063 25.1406ZM41.8594 25.1406C41.9375 25.2188 42.0157 25.2188 42.0938 25.2188C42.1719 25.2188 42.25 25.2188 42.3282 25.1406C43.4219 26.9375 40.8438 26.9375 41.8594 25.1406ZM41.8594 25.1406C40.7657 26.9375 39.5157 24.75 41.625 24.75C41.625 24.8281 41.7032 25.0625 41.8594 25.1406ZM41.8594 24.2812C41.7032 24.3594 41.625 24.5156 41.625 24.6719C39.5157 24.6719 40.8438 22.4062 41.8594 24.2812ZM42.4063 24.2812C42.3282 24.2031 42.25 24.2031 42.1719 24.2031C42.0938 24.2031 42.0157 24.2031 41.9375 24.2812C40.8438 22.4062 43.4219 22.4062 42.4063 24.2812ZM42.6407 24.6719C42.6407 24.5156 42.5625 24.3594 42.4063 24.2812C43.4219 22.4062 44.75 24.6719 42.6407 24.6719Z" fill="#DCE0E0"/>
<path d="M42.6406 24.6719C42.6406 24.8281 42.5625 24.9844 42.4062 25.0625C42.3281 25.1406 42.25 25.1406 42.1719 25.1406C42.0938 25.1406 42.0156 25.1406 41.9375 25.0625C41.7812 24.9844 41.7031 24.8281 41.7031 24.6719C41.7031 24.5156 41.7812 24.3594 41.9375 24.2812C42.0156 24.2031 42.0938 24.2031 42.1719 24.2031C42.25 24.2031 42.3281 24.2031 42.4062 24.2812C42.4844 24.3594 42.6406 24.5156 42.6406 24.6719Z" fill="#379FC9"/>
<path d="M37.7969 40.4531C37.7969 40.4531 37.7188 47.0156 37.7188 51.2344V52.4844C37.6406 53.4219 37.25 54.75 36.0781 55.7656C36 55.8438 36 55.8438 35.9219 55.8438C33.2656 58.1875 28.8906 62.0938 28.8906 62.0938L27.25 60.4531L33.2656 53.2656C33.7344 52.7188 34.0469 52.0938 34.2812 51.3906L34.5937 50.1406C33.6562 43.8125 35.8438 41.625 37.0938 40.9219C37.4062 40.6094 37.7188 40.4531 37.7969 40.4531Z" fill="#FDC87C"/>
<path d="M27.1719 60.4533L28.8125 62.0939C28.8125 62.0939 26.625 66.2345 22.0157 62.6408C22.0157 62.6408 21.7813 61.6252 24.125 61.8595C24.2032 61.8595 22.4844 57.797 27.1719 60.4533Z" fill="#FDD985"/>
<path d="M25.4531 63.2656C25.712 63.2656 25.9219 63.0558 25.9219 62.7969C25.9219 62.538 25.712 62.3281 25.4531 62.3281C25.1942 62.3281 24.9844 62.538 24.9844 62.7969C24.9844 63.0558 25.1942 63.2656 25.4531 63.2656Z" fill="#EFF3F6"/>
<path d="M54.2031 40.4531C54.2031 40.4531 54.2812 47.0156 54.2812 51.2344V52.4844C54.3594 53.4219 54.75 54.75 55.9219 55.7656C56 55.8438 56 55.8438 56.0781 55.8438C58.7344 58.1875 63.1094 62.0938 63.1094 62.0938L64.75 60.4531L58.7344 53.2656C58.2656 52.7188 57.9531 52.0938 57.7188 51.3906L57.4062 50.1406C58.3437 43.8125 56.1563 41.625 54.9063 40.9219C54.5938 40.6094 54.2812 40.4531 54.2031 40.4531Z" fill="#FDC87C"/>
<path d="M64.8281 60.4533L63.1875 62.0939C63.1875 62.0939 65.375 66.2345 69.9844 62.6408C69.9844 62.6408 70.2188 61.6252 67.875 61.8595C67.7969 61.8595 69.5156 57.797 64.8281 60.4533Z" fill="#FDD985"/>
<path d="M66.5469 63.2656C66.8058 63.2656 67.0156 63.0558 67.0156 62.7969C67.0156 62.538 66.8058 62.3281 66.5469 62.3281C66.288 62.3281 66.0781 62.538 66.0781 62.7969C66.0781 63.0558 66.288 63.2656 66.5469 63.2656Z" fill="#EFF3F6"/>
<path d="M55.4531 60.375C55.4531 60.375 55.0625 61.7812 45.9219 61.7812C36.7812 61.7812 36.3906 60.375 36.3906 60.375C36.625 57.1719 38.5781 56.0781 38.5781 56.0781C35.2187 52.4844 37.7187 40.4531 37.7187 40.4531H41.0781V41.1562C41.0781 44.5937 43.2656 47.4062 45.9219 47.4062C48.5781 47.4062 50.7656 44.5937 50.7656 41.1562V40.4531H54.125C54.125 40.4531 56.7031 52.4844 53.2656 56.0781C53.2656 56.0781 55.2187 57.1719 55.4531 60.375Z" fill="#DCE0E0"/>
<path d="M37.6406 68.3437L36.5469 68.5781C36.8594 67.9531 37.1719 67.3281 37.0938 66.7031C37.0156 66 36.625 65.2188 35.8437 64.6719C35.1406 64.0469 34.0469 63.5781 32.9531 63.2656C34.125 63.5781 35.2187 63.9688 36.1562 64.5938C37.0156 65.1406 37.6406 65.9219 37.7969 66.7031C37.9531 67.25 37.875 67.7969 37.6406 68.3437ZM59.125 63.2656C57.9531 63.5781 56.9375 64.125 56.2344 64.6719C55.4531 65.2969 55.0625 66 54.9844 66.7031C54.9062 67.4063 55.2188 68.0313 55.6094 68.6563L54.4375 68.4219C54.2031 67.7969 54.125 67.25 54.2031 66.625C54.3594 65.8438 54.9844 65.0625 55.8438 64.5156C56.7812 63.9688 57.875 63.5 59.125 63.2656Z" fill="#379FC9"/>
<path d="M44.9063 68.9688C44.2813 68.8906 43.5781 68.8906 42.9531 68.8906C42.3281 68.8906 41.625 68.9688 41 69.0469C40.375 69.125 39.75 69.2812 39.125 69.5156C38.5781 69.75 38.0313 69.9844 37.5625 70.2969C37.4844 70.2969 37.3281 70.2188 37.25 70.1406H37.0156V70.0625L37.1719 69.9844C37.7969 69.5938 38.4219 69.3594 39.0469 69.125C39.6719 68.9688 40.375 68.8125 41 68.7344C41.625 68.6562 42.3281 68.6563 42.9531 68.6563C43.6563 68.8125 44.2813 68.8906 44.9063 68.9688ZM54.4375 69.6719C54.2812 69.6719 54.125 69.6719 53.9688 69.75L53.8125 69.9062C53.3438 69.5938 52.875 69.3594 52.3281 69.125C51.7031 68.8906 51.0781 68.7344 50.4531 68.6563C49.8281 68.5781 49.125 68.5 48.5 68.5C47.875 68.5 47.1719 68.5 46.5469 68.5781C47.1719 68.5 47.875 68.4219 48.5 68.3438C49.125 68.3438 49.8281 68.3438 50.4531 68.4219C51.0781 68.5 51.7813 68.5781 52.4063 68.8125C53.0312 69.0469 53.6562 69.2813 54.2812 69.6719H54.4375Z" fill="#E8BE6B"/>
</svg>
