<svg width="93" height="92" viewBox="0 0 93 92" fill="none" xmlns="http://www.w3.org/2000/svg">
<circle cx="46.3333" cy="46" r="46" fill="#E6F5FC"/>
<path fill-rule="evenodd" clip-rule="evenodd" d="M66.8816 47.0727C66.8816 35.0594 57.1473 28.7266 45.1363 28.7266C33.1277 28.7266 23.3926 35.0594 23.3926 47.0727C23.3926 49.4773 23.7988 51.7836 24.5176 53.9461H24.5074C24.5074 53.9461 31.4762 75.9617 45.1363 68.825C58.798 75.9625 65.766 53.9461 65.766 53.9461H65.7559C66.4984 51.7305 66.8791 49.4094 66.8816 47.0727Z" fill="#E34361"/>
<path fill-rule="evenodd" clip-rule="evenodd" d="M66.8817 47.0725C66.8817 39.5162 63.0254 34.21 57.1786 31.3115C60.702 34.3795 62.87 38.7521 62.87 44.3967C62.87 46.8014 62.4637 49.1076 61.7442 51.2717H61.7543C61.7543 51.2717 56.3215 68.4084 45.6543 67.5264C45.2083 68.1537 44.6778 68.7397 44.1106 69.3014C44.4489 69.1561 44.7887 69.0061 45.1364 68.8248C58.7981 75.9623 65.7661 53.9459 65.7661 53.9459H65.7559C66.4985 51.7303 66.8792 49.4092 66.8817 47.0725Z" fill="#BC395B"/>
<path fill-rule="evenodd" clip-rule="evenodd" d="M45.1371 42.0182C39.8004 42.0182 37.5293 39.2252 37.4348 39.1057C37.1883 38.7943 37.0756 38.3979 37.1215 38.0034C37.1673 37.609 37.368 37.249 37.6793 37.0025C37.9906 36.7561 38.3871 36.6434 38.7815 36.6892C39.1759 36.7351 39.536 36.9357 39.7824 37.2471C39.8293 37.301 41.3363 39.0228 45.1371 39.0228C48.9379 39.0228 50.4442 37.301 50.5067 37.2275C51.0363 36.6049 51.9754 36.5119 52.6059 37.0283C53.2356 37.5478 53.3449 38.4642 52.8395 39.1057C52.7449 39.2252 50.4738 42.0182 45.1371 42.0182Z" fill="#454849"/>
<path fill-rule="evenodd" clip-rule="evenodd" d="M45.1372 67.3279C45.3754 67.3279 45.6137 67.3842 45.8301 67.4967C48.5754 68.9326 51.1059 69.1373 53.559 68.1225C60.1161 65.417 63.8223 55.0256 64.2895 53.6451C64.3012 53.5865 64.3168 53.5295 64.3364 53.4732C65.0275 51.4099 65.381 49.2485 65.3833 47.0725C65.3833 34.635 54.477 30.224 45.1372 30.224C35.7973 30.224 24.8903 34.6357 24.8903 47.0725C24.8903 49.2287 25.2418 51.3834 25.9379 53.4725C25.9575 53.5295 25.9723 53.5881 25.9848 53.6443C26.4543 55.0303 30.1778 65.4287 36.7184 68.1256C39.1731 69.1334 41.6989 68.9303 44.4442 67.4967C44.6614 67.3842 44.8989 67.3279 45.1372 67.3279ZM50.4606 71.749C48.7161 71.749 46.9379 71.3318 45.1372 70.4943C41.8481 72.0232 38.6356 72.16 35.5715 70.8912C27.3036 67.4787 23.2473 54.9311 23.0801 54.3982C23.0639 54.3475 23.0506 54.2958 23.0403 54.2436C22.2851 51.9277 21.8988 49.5075 21.8958 47.0717C21.8958 35.2029 31.2364 27.2295 45.1372 27.2295C59.0379 27.2295 68.3778 35.2037 68.3778 47.0732C68.3778 49.4912 67.9934 51.9021 67.234 54.2459C67.2239 54.2967 67.2106 54.3475 67.1934 54.399C67.0262 54.9318 62.9708 67.4795 54.7028 70.892C53.3168 71.4646 51.9004 71.7506 50.4606 71.7506" fill="#454849"/>
<path fill-rule="evenodd" clip-rule="evenodd" d="M45.1348 42.0164C44.8152 42.0165 44.5041 41.9141 44.247 41.7243C43.99 41.5344 43.8006 41.2672 43.7066 40.9617C43.5746 40.5367 40.5793 30.4531 48.6301 22.8336C48.9189 22.5612 49.3039 22.4144 49.7008 22.4254C50.0976 22.4364 50.474 22.6042 50.7473 22.8922C51.3145 23.4938 51.2871 24.4422 50.6871 25.0109C44.0137 31.3242 46.4606 39.7281 46.5691 40.0813C46.6371 40.3053 46.6516 40.5421 46.6116 40.7728C46.5716 41.0034 46.4781 41.2215 46.3387 41.4096C46.1993 41.5977 46.0178 41.7505 45.8088 41.8559C45.5997 41.9613 45.3689 42.0162 45.1348 42.0164Z" fill="#454849"/>
<path fill-rule="evenodd" clip-rule="evenodd" d="M28.9598 25.9203C45.4598 20.7094 44.6817 34.1 44.6817 34.1C44.6817 34.1 34.1692 42.4258 28.9598 25.9203Z" fill="#3BB777"/>
<path fill-rule="evenodd" clip-rule="evenodd" d="M28.9598 25.9202L44.6817 34.0999C44.6817 34.0999 34.1692 42.4257 28.9598 25.9202Z" fill="#229857"/>
<path fill-rule="evenodd" clip-rule="evenodd" d="M30.8833 26.9202C32.4419 31.1366 34.4958 33.6648 37.002 34.4437C39.5583 35.2429 42.0692 33.9905 43.1723 33.314C43.0927 32.0234 42.6708 29.2484 40.5544 27.6116C38.4762 26.0069 35.2294 25.7741 30.8833 26.9202ZM38.7317 37.6976C37.9005 37.6976 37.0309 37.5851 36.145 37.3124C32.3559 36.1507 29.4575 32.4694 27.5341 26.3702C27.4748 26.1827 27.453 25.9854 27.4699 25.7895C27.4869 25.5936 27.5424 25.4029 27.633 25.2284C27.7237 25.054 27.8479 24.899 27.9985 24.7726C28.1491 24.6461 28.3231 24.5505 28.5106 24.4913C34.6075 22.5687 39.2841 22.8257 42.4091 25.2609C46.4637 28.4171 46.1895 33.9507 46.1762 34.1874C46.1638 34.3982 46.107 34.6039 46.0093 34.791C45.9117 34.9782 45.7756 35.1426 45.6098 35.2734C45.4606 35.3913 42.4981 37.6976 38.7317 37.6976Z" fill="#454849"/>
<path fill-rule="evenodd" clip-rule="evenodd" d="M40.2989 47.2835C34.9536 47.2835 32.1161 43.4632 31.995 43.296C31.8197 43.0554 31.7472 42.7549 31.7934 42.4608C31.8397 42.1667 32.0008 41.903 32.2415 41.7277C32.4822 41.5524 32.7826 41.4799 33.0767 41.5261C33.3709 41.5723 33.6346 41.7335 33.8099 41.9741C33.9192 42.1202 36.2739 45.2296 40.6942 45.0288C41.3192 44.9523 41.838 45.482 41.8645 46.1023C41.8775 46.3995 41.7718 46.6897 41.5708 46.909C41.3698 47.1283 41.0899 47.2588 40.7927 47.2718C40.6255 47.2796 40.4606 47.2835 40.2989 47.2835ZM31.552 38.2273C32.1708 38.7515 32.2481 39.6788 31.7231 40.2976C31.5987 40.4449 31.4464 40.5662 31.2751 40.6545C31.1037 40.7429 30.9166 40.7966 30.7244 40.8126C30.5323 40.8285 30.3388 40.8065 30.1552 40.7476C29.9716 40.6887 29.8014 40.5942 29.6544 40.4695C29.3571 40.2177 29.1719 39.8582 29.1397 39.4699C29.1237 39.2777 29.1458 39.0841 29.2046 38.9004C29.2634 38.7167 29.3579 38.5464 29.4825 38.3991C29.6072 38.2519 29.7596 38.1307 29.9311 38.0424C30.1026 37.9541 30.2898 37.9004 30.4821 37.8844C30.8703 37.8522 31.2555 37.9755 31.5528 38.2273" fill="#FEFEFE"/>
</svg>
