<svg width="92" height="92" viewBox="0 0 92 92" fill="none" xmlns="http://www.w3.org/2000/svg">
<circle cx="46" cy="46" r="46" fill="#E6F5FC"/>
<g clip-path="url(#clip0_399_1177)">
<mask id="mask0_399_1177" style="mask-type:luminance" maskUnits="userSpaceOnUse" x="21" y="21" width="50" height="50">
<path d="M21 21H71V71H21V21Z" fill="white"/>
</mask>
<g mask="url(#mask0_399_1177)">
<path d="M69.6842 45.9999C69.6842 59.0801 59.0803 69.6841 46 69.6841C32.9197 69.6841 22.3158 59.0801 22.3158 45.9999C22.3158 32.9196 32.9197 22.3157 46 22.3157C59.0803 22.3157 69.6842 32.9196 69.6842 45.9999Z" fill="#88C9F9"/>
</g>
<mask id="mask1_399_1177" style="mask-type:luminance" maskUnits="userSpaceOnUse" x="22" y="22" width="48" height="48">
<path d="M22.3158 45.9999C22.3158 59.0801 32.9197 69.6841 46 69.6841C59.0803 69.6841 69.6842 59.0801 69.6842 45.9999C69.6842 32.9196 59.0803 22.3157 46 22.3157C32.9197 22.3157 22.3158 32.9196 22.3158 45.9999Z" fill="white"/>
</mask>
<g mask="url(#mask1_399_1177)">
<path d="M32.4316 24.7829C35.4908 25.3566 36.9553 24.7829 38.1053 25.1934C39.2566 25.6053 38.1881 26.1803 39.0105 26.6737C39.8329 27.1671 40.0789 27.0855 40.7368 26.8382C41.3947 26.5921 41.8881 25.6684 42.3816 26.0158C42.875 26.3645 44.6026 26.054 45.0145 26.6737C45.425 27.2948 46.0013 27.7816 46.9053 27.3316C47.8105 26.8829 51.2645 26.4619 52.1684 27.0211C53.0737 27.579 55.375 27.679 56.2803 27.8263C57.1842 27.9724 59.4868 28.05 59.1579 28.4316C58.8289 28.8132 60.0631 28.5658 59.4053 29.4711C58.7474 30.375 56.1974 32.2658 55.9513 32.0198C55.7039 31.7724 55.4579 30.6211 54.6355 30.704C53.8131 30.7855 52.6618 30.5395 52.5802 31.5263C52.4974 32.5132 51.2645 33.7461 52.1684 33.7461C53.0737 33.7461 53.9776 32.8421 54.2237 33.7461C54.471 34.6513 54.3066 35.1448 54.0592 35.6382C53.8131 36.1316 54.3881 36.1316 53.0737 36.4605C51.7579 36.7895 52.3329 35.7211 51.7579 36.7895C51.1816 37.8592 49.8658 38.1882 50.1947 39.0921C50.5237 39.9974 50.771 40.4908 50.8526 41.2303C50.9355 41.9711 50.0303 42.875 49.5368 43.5329C49.0434 44.1908 48.4684 44.8487 47.7276 45.0132C46.9881 45.1777 46.4118 45.3421 46.0013 46.4106C45.5895 47.4803 46.45 49.0421 45.2381 48.8777C44.0276 48.7132 43.3697 47.9737 43.2868 47.3974C43.2053 46.8224 41.971 45.6711 41.8881 45.3421C41.8066 45.0132 40.2434 43.8619 40.2434 43.8619C40.2434 43.8619 39.2566 44.8487 39.2566 46C39.2566 47.1513 39.5855 48.5487 39.5855 48.5487C39.5855 48.5487 39.175 49.125 38.3526 48.4671C37.5303 47.8092 36.6263 47.6448 36.2145 46.7395C35.8039 45.8356 35.3105 44.2737 35.3105 43.6974C35.3105 43.1224 34.3224 41.8882 33.9118 41.8882C33.5 41.8882 31.4447 42.1355 31.2803 42.4645C31.1158 42.7934 30.6224 43.3684 30.2118 43.7803C29.8 44.1908 28.6487 45.6711 28.2368 45.425C27.8263 45.1777 26.1816 44.2737 26.1816 43.4513C26.1816 42.629 25.0303 43.1224 24.9487 41.8066C24.8658 40.4908 24.2908 39.3395 24.1263 40.5724C23.9618 41.8066 24.0434 42.2171 24.5368 43.6974C25.0303 45.1777 25.3592 45.6711 26.1 46C26.8395 46.329 26.4289 46.904 27.6618 46.7395C28.8947 46.575 29.6355 46.1645 29.7171 46.6579C29.8 47.1513 30.4579 48.079 29.2237 48.8895C27.9908 49.7 28.1553 49.7829 27.4145 50.5224C26.675 51.2632 25.9355 51.0158 25.9355 52.579C25.9355 54.1408 25.9355 54.3882 26.0171 55.704C26.1 57.0198 26.2645 58.2527 25.1131 58.9106C23.9618 59.5684 20.1776 54.9632 19.8487 52.3316C19.5197 49.7 18.1224 40.9013 18.6158 38.8461C19.1092 36.7895 21.7408 30.4566 22.8105 29.2237C23.8789 27.9908 29.8 24.2895 32.4316 24.7829ZM43.2868 50.3579C43.2868 51.2619 42.6289 52.2487 43.2868 53.154C43.9447 54.0592 44.5197 54.0592 45.096 54.1408C45.671 54.2237 47.3171 54.1408 46.0013 53.0724C44.6842 52.0027 43.9447 52.825 44.1092 51.5908C44.2737 50.3579 43.2868 50.3579 43.2868 50.3579Z" fill="#5C913B"/>
<path d="M52.4973 37.1999C52.4973 38.1038 51.8394 39.0907 52.4973 39.9959C53.1552 40.9012 51.1815 41.6407 51.7579 41.7236C52.3329 41.8051 54.8 41.4762 53.4842 40.4078C52.1684 39.338 53.1552 39.667 53.3197 38.4328C53.4842 37.1999 52.4973 37.1999 52.4973 37.1999ZM46.4973 51.592C47.0723 50.5051 47.7263 50.5236 48.3842 51.017C49.0421 51.5104 51.0158 52.4143 49.9473 52.8249C48.8776 53.2367 49.1934 54.1407 48.3776 53.2367C47.5618 52.3314 45.8434 52.8249 46.4973 51.592ZM51.675 52.2617C52.121 52.492 52.8263 53.2367 53.8131 53.1551C54.8 53.0722 54.7184 54.188 55.7052 54.1643C56.6921 54.142 57.596 54.388 58.0065 54.8814C58.4184 55.3749 60.2223 56.1157 59.1973 56.1972C58.171 56.2801 57.7605 55.5393 56.6921 55.2104C55.6223 54.8814 55.5408 55.7867 54.3894 55.1288C53.2368 54.4709 52.0039 55.4209 51.675 54.1643C51.346 52.9078 50.7052 51.7617 51.675 52.2617ZM42.9934 58.4999C43.7487 57.7657 44.2723 57.267 45.4237 56.6907C46.575 56.1157 48.5487 55.292 49.0421 55.2104C49.5355 55.1275 50.1118 54.9012 50.4408 55.5525C50.7697 56.2038 51.1802 56.4446 51.8381 56.2038C52.496 55.9617 53.2684 56.1038 53.7618 56.5196C54.2552 56.9367 55.4565 57.6775 55.8684 58.4999C56.2789 59.3222 57.1013 59.1578 56.8552 60.1446C56.6079 61.1314 56.9368 62.6946 56.0329 63.517C55.1276 64.338 54.5526 65.3249 53.5658 65.8183C52.5789 66.3117 49.9737 65.0788 49.9737 64.338C49.9737 63.5986 49.0263 62.9893 48.3052 62.3314C47.5829 61.6736 47.1552 61.7893 46.4973 62.2828C45.8394 62.7762 46.0815 63.2696 45.2592 63.4341C44.4368 63.5986 42.2473 65.3249 42.3302 64.0091C42.4118 62.6946 43.5237 60.3907 42.9934 59.6512C42.4631 58.9104 41.8118 59.6499 42.9934 58.4999Z" fill="#5C913B"/>
</g>
</g>
<defs>
<clipPath id="clip0_399_1177">
<rect width="50" height="50" fill="white" transform="translate(21 21)"/>
</clipPath>
</defs>
</svg>
