<svg width="13" height="13" viewBox="0 0 13 13" fill="none" xmlns="http://www.w3.org/2000/svg">
<path d="M7.33099 1.29465L8.39565 3.42397C8.53912 3.71845 8.92421 3.99783 9.24889 4.05824L11.1743 4.37537C12.4051 4.57924 12.6921 5.47023 11.8086 6.36123L10.306 7.86384C10.0568 8.11301 9.91336 8.60381 9.99642 8.9587L10.4268 10.8162C10.7666 12.281 9.98132 12.8549 8.69014 12.0847L6.8855 11.0125C6.56081 10.8162 6.01716 10.8162 5.69247 11.0125L3.88783 12.0847C2.59665 12.8474 1.81136 12.281 2.15115 10.8162L2.58154 8.9587C2.6495 8.59626 2.50604 8.10546 2.25686 7.85629L0.754252 6.35368C-0.12919 5.47023 0.15774 4.57924 1.38852 4.36782L3.31397 4.05069C3.63866 3.99783 4.02375 3.7109 4.16721 3.41642L5.23187 1.28709C5.81328 0.139374 6.74958 0.139375 7.33099 1.29465Z" fill="#FEB052"/>
</svg>
