<svg width="15" height="15" viewBox="0 0 15 15" fill="none" xmlns="http://www.w3.org/2000/svg">
<path d="M7.09964 2.79698L7.5 3.33211L7.90036 2.79698C8.56792 1.90468 9.63741 1.32495 10.83 1.32495C12.854 1.32495 14.5 2.97375 14.5 5.01745C14.5 5.85557 14.3664 6.6287 14.1343 7.34604L14.1332 7.34929C13.5765 9.111 12.4341 10.5352 11.195 11.6001C9.95375 12.6669 8.64415 13.3482 7.80394 13.6341L7.80393 13.6341L7.79859 13.636C7.74125 13.6562 7.633 13.675 7.5 13.675C7.367 13.675 7.25875 13.6562 7.20141 13.636L7.20142 13.6359L7.19606 13.6341C6.35584 13.3482 5.04625 12.6669 3.80496 11.6001C2.56587 10.5352 1.42346 9.111 0.866762 7.34929L0.866774 7.34929L0.865722 7.34604C0.633641 6.6287 0.5 5.85557 0.5 5.01745C0.5 2.97375 2.14598 1.32495 4.17 1.32495C5.3626 1.32495 6.43208 1.90468 7.09964 2.79698Z" stroke="#1F2A37"/>
</svg>
