<svg width="18" height="16" viewBox="0 0 18 16" fill="none" xmlns="http://www.w3.org/2000/svg">
<path d="M8.61087 2.30402L9.01123 2.83915L9.41158 2.30402C10.2295 1.21074 11.5402 0.5 13.0022 0.5C15.4833 0.5 17.5 2.52099 17.5 5.02472C17.5 6.04 17.3381 6.97689 17.0568 7.84609L17.0558 7.84934C16.3815 9.98324 14.999 11.7048 13.5044 12.9893C12.0076 14.2757 10.4271 15.0988 9.40747 15.4458L9.40746 15.4457L9.40212 15.4476C9.31947 15.4768 9.17773 15.5 9.01123 15.5C8.84472 15.5 8.70298 15.4768 8.62033 15.4476L8.62034 15.4476L8.61498 15.4458C7.59537 15.0988 6.01482 14.2757 4.51802 12.9893C3.02342 11.7048 1.64095 9.98324 0.966639 7.84934L0.96665 7.84934L0.965599 7.84609C0.684389 6.97689 0.522461 6.04 0.522461 5.02472C0.522461 2.52099 2.53914 0.5 5.02021 0.5C6.48228 0.5 7.79294 1.21074 8.61087 2.30402Z" fill="#DC143C" stroke="#DC143C"/>
</svg>
