<svg width="14" height="14" viewBox="0 0 14 14" fill="none" xmlns="http://www.w3.org/2000/svg">
<path d="M12.8334 12.3958H1.16675C0.927581 12.3958 0.729248 12.5941 0.729248 12.8333C0.729248 13.0724 0.927581 13.2708 1.16675 13.2708H12.8334C13.0726 13.2708 13.2709 13.0724 13.2709 12.8333C13.2709 12.5941 13.0726 12.3958 12.8334 12.3958Z" fill="#292D32"/>
<path opacity="0.4" d="M9.91667 1.16675H4.08333C2.33333 1.16675 1.75 2.21091 1.75 3.50008V12.8334H12.25V3.50008C12.25 2.21091 11.6667 1.16675 9.91667 1.16675Z" fill="#292D32"/>
<path d="M8.20164 8.75H5.79247C5.49497 8.75 5.24414 8.995 5.24414 9.29833V12.8333H8.74414V9.29833C8.74997 8.995 8.50497 8.75 8.20164 8.75Z" fill="#292D32"/>
<path d="M8.45841 4.52083H7.43758V3.5C7.43758 3.26083 7.23925 3.0625 7.00008 3.0625C6.76091 3.0625 6.56258 3.26083 6.56258 3.5V4.52083H5.54175C5.30258 4.52083 5.10425 4.71917 5.10425 4.95833C5.10425 5.1975 5.30258 5.39583 5.54175 5.39583H6.56258V6.41667C6.56258 6.65583 6.76091 6.85417 7.00008 6.85417C7.23925 6.85417 7.43758 6.65583 7.43758 6.41667V5.39583H8.45841C8.69758 5.39583 8.89591 5.1975 8.89591 4.95833C8.89591 4.71917 8.69758 4.52083 8.45841 4.52083Z" fill="#292D32"/>
</svg>
