<svg width="14" height="14" viewBox="0 0 14 14" fill="none" xmlns="http://www.w3.org/2000/svg">
<path opacity="0.4" d="M12.0284 4.92909C11.4159 2.23409 9.06506 1.02075 7.00006 1.02075C7.00006 1.02075 7.00006 1.02075 6.99422 1.02075C4.93506 1.02075 2.57839 2.22825 1.96589 4.92325C1.28339 7.93325 3.12672 10.4824 4.79506 12.0866C5.41339 12.6816 6.20672 12.9791 7.00006 12.9791C7.79339 12.9791 8.58672 12.6816 9.19922 12.0866C10.8676 10.4824 12.7109 7.93909 12.0284 4.92909Z" fill="#292D32"/>
<path d="M7.0001 7.85176C8.01492 7.85176 8.8376 7.02908 8.8376 6.01426C8.8376 4.99943 8.01492 4.17676 7.0001 4.17676C5.98527 4.17676 5.1626 4.99943 5.1626 6.01426C5.1626 7.02908 5.98527 7.85176 7.0001 7.85176Z" fill="#292D32"/>
</svg>
