<svg width="16" height="16" viewBox="0 0 16 16" fill="none" xmlns="http://www.w3.org/2000/svg">
<path fill-rule="evenodd" clip-rule="evenodd" d="M7.91342 0.0864258C7.43082 0.111116 6.95207 0.489077 6.58221 1.21919L5.17802 4.02757C4.98881 4.41596 4.48091 4.79439 4.05268 4.86411L1.51319 5.28237C-0.110091 5.56122 -0.488524 6.73636 0.676653 7.90154L2.65845 9.88333C2.98709 10.212 3.17631 10.8593 3.08668 11.3373L2.51903 13.7872C2.07088 15.7192 3.1066 16.4661 4.80955 15.4603L7.1897 14.0461C7.3881 13.9261 7.64848 13.8618 7.91342 13.853V0.0864258Z" fill="#FEB052"/>
<path fill-rule="evenodd" clip-rule="evenodd" d="M7.91333 13.8542C8.22024 13.844 8.53326 13.9084 8.76308 14.0474L11.1432 15.4615C12.8462 16.4773 13.8819 15.7205 13.4338 13.7885L12.8661 11.3386C12.7566 10.8705 12.9458 10.2232 13.2744 9.89459L15.2562 7.91279C16.4214 6.73765 16.043 5.56251 14.4197 5.29363L11.8802 4.87536C11.452 4.79569 10.9441 4.42721 10.7548 4.03882L9.35065 1.23044C8.95369 0.441674 8.43129 0.0612259 7.91333 0.0877194V13.8542Z" fill="#FEB052"/>
</svg>
