<svg width="16" height="16" viewBox="0 0 16 16" fill="none" xmlns="http://www.w3.org/2000/svg">
<path opacity="0.4" d="M3.64657 6.00016C4.93523 6.00016 5.9799 4.95549 5.9799 3.66683C5.9799 2.37816 4.93523 1.3335 3.64657 1.3335C2.3579 1.3335 1.31323 2.37816 1.31323 3.66683C1.31323 4.95549 2.3579 6.00016 3.64657 6.00016Z" fill="#292D32"/>
<path opacity="0.4" d="M11.3333 10H13.3333C14.0667 10 14.6667 10.6 14.6667 11.3333V13.3333C14.6667 14.0667 14.0667 14.6667 13.3333 14.6667H11.3333C10.6 14.6667 10 14.0667 10 13.3333V11.3333C10 10.6 10.6 10 11.3333 10Z" fill="#292D32"/>
<path d="M7.99988 13.1668H6.21321C5.43988 13.1668 4.76655 12.7002 4.49988 11.9802C4.22655 11.2602 4.42655 10.4668 5.00655 9.9535L10.3332 5.2935C10.6532 5.0135 10.6599 4.6335 10.5665 4.3735C10.4665 4.1135 10.2132 3.8335 9.78655 3.8335H7.99988C7.72655 3.8335 7.49988 3.60683 7.49988 3.3335C7.49988 3.06016 7.72655 2.8335 7.99988 2.8335H9.78655C10.5599 2.8335 11.2332 3.30016 11.4999 4.02016C11.7732 4.74016 11.5732 5.5335 10.9932 6.04683L5.66655 10.7068C5.34655 10.9868 5.33988 11.3668 5.43321 11.6268C5.53321 11.8868 5.78655 12.1668 6.21321 12.1668H7.99988C8.27321 12.1668 8.49988 12.3935 8.49988 12.6668C8.49988 12.9402 8.27321 13.1668 7.99988 13.1668Z" fill="#292D32"/>
<path d="M12.34 12.9998C11.9733 12.9998 11.6733 12.6998 11.6733 12.3332C11.6733 11.9665 11.9667 11.6665 12.34 11.6665H12.3467C12.7133 11.6665 13.0133 11.9665 13.0133 12.3332C13.0133 12.6998 12.7133 12.9998 12.34 12.9998Z" fill="#292D32"/>
<path d="M3.67326 4.33333C3.30659 4.33333 3.00659 4.03333 3.00659 3.66667C3.00659 3.3 3.29993 3 3.67326 3H3.67992C4.04659 3 4.34659 3.3 4.34659 3.66667C4.34659 4.03333 4.04659 4.33333 3.67326 4.33333Z" fill="#292D32"/>
</svg>
